@startuml
left to right direction

[*] --> Criada

state Criada {
}

state "Em processo" as aprocessar {

}

state Processada {

}

state Entregue {
}

state Cancelada{

}

state c <<choice>>

Criada --> c
c --> aprocessar: prever
aprocessar   --> Processada: realizar
Processada  --> Entregue: entregar
c --> Cancelada: cancelar


@enduml